<svg height="60" viewBox="0 0 30 30" width="60" xmlns="http://www.w3.org/2000/svg"><path d="m24 4h-18c-1.105 0-2 .895-2 2v18c0 1.105.895 2 2 2h18c1.105 0 2-.895 2-2v-18c0-1.105-.896-2-2-2zm-3 14.453c0 1.132-.914 2.535-2.999 2.535-1.862 0-2.333-1.194-2.333-1.999 0-.991.598-2.005 2.335-2.004 1.573 0 1.664-.401 1.664-1.193v-4.028l-7.331 1.195v6.632c0 1.132-.914 2.41-2.999 2.41-1.862 0-2.333-1.194-2.333-1.999 0-.991.598-2.005 2.335-2.005 1.573 0 1.664-.401 1.664-1.193 0-2.21 0-6.804 0-6.804 0-.33.244-.591.558-.645l8.688-1.349s.058-.005.085-.005c.368-.001.666.297.666.665z"/></svg>